<svg xmlns="http://www.w3.org/2000/svg" viewBox="0 0 128 128" width="128" height="128">
  <rect width="128" height="128" fill="#fff"/>
  <g fill="#000" stroke="none" fill-rule="evenodd">
    <path d="M 38 23 L 37 24 L 37 103 L 38 104 L 52 104 L 52 23 Z"/> <path d="M 8 23 L 8 103 L 9 104 L 22 104 L 23 103 L 23 24 L 22 23 Z"/> <path d="M 85 22 L 84 23 L 80 23 L 79 24 L 78 24 L 77 25 L 76 25 L 75 26 L 74 26 L 69 31 L 69 32 L 68 33 L 68 34 L 67 35 L 67 37 L 66 38 L 66 89 L 67 90 L 67 92 L 68 93 L 68 94 L 69 95 L 69 96 L 74 101 L 75 101 L 77 103 L 79 103 L 80 104 L 83 104 L 84 105 L 101 105 L 102 104 L 106 104 L 107 103 L 108 103 L 109 102 L 110 102 L 113 99 L 114 99 L 114 98 L 117 95 L 117 94 L 118 93 L 118 92 L 119 91 L 119 75 L 104 75 L 103 76 L 103 87 L 102 88 L 102 89 L 101 90 L 100 90 L 99 91 L 98 91 L 97 92 L 88 92 L 87 91 L 86 91 L 83 88 L 83 87 L 82 86 L 82 41 L 83 40 L 83 39 L 86 36 L 87 36 L 88 35 L 97 35 L 98 36 L 100 36 L 102 38 L 102 39 L 103 40 L 103 48 L 104 49 L 119 49 L 119 36 L 118 35 L 118 34 L 117 33 L 117 32 L 114 29 L 114 28 L 113 28 L 110 25 L 109 25 L 108 24 L 107 24 L 106 23 L 101 23 L 100 22 Z"/>
  </g>
</svg>
