<?xml version="1.0" encoding="utf-8"?>
<svg version="1.1" xmlns:xlink="http://www.w3.org/1999/xlink" width="15px" height="14px" xmlns="http://www.w3.org/2000/svg">
  <defs>
    <pattern id="BGPattern" patternUnits="userSpaceOnUse" alignment="0 0" imageRepeat="None" />
    <mask fill="white" id="Clip202">
      <path d="M 11.3671875 12.66015625  C 11.481370192307693 12.54470486111111  11.538461538461538 12.40798611111111  11.538461538461538 12.25  C 11.538461538461538 12.09201388888889  11.481370192307693 11.95529513888889  11.3671875 11.83984375  C 11.253004807692308 11.72439236111111  11.117788461538463 11.666666666666668  10.961538461538462 11.666666666666668  C 10.805288461538462 11.666666666666668  10.670072115384617 11.72439236111111  10.555889423076923 11.83984375  C 10.441706730769232 11.95529513888889  10.384615384615385 12.09201388888889  10.384615384615385 12.25  C 10.384615384615385 12.40798611111111  10.441706730769232 12.54470486111111  10.555889423076923 12.66015625  C 10.670072115384617 12.77560763888889  10.805288461538462 12.833333333333332  10.961538461538462 12.833333333333332  C 11.117788461538463 12.833333333333332  11.253004807692308 12.77560763888889  11.3671875 12.66015625  Z M 13.674879807692308 12.66015625  C 13.789062499999998 12.54470486111111  13.846153846153847 12.40798611111111  13.846153846153847 12.25  C 13.846153846153847 12.09201388888889  13.789062499999998 11.95529513888889  13.674879807692308 11.83984375  C 13.560697115384617 11.72439236111111  13.42548076923077 11.666666666666668  13.269230769230768 11.666666666666668  C 13.11298076923077 11.666666666666668  12.977764423076923 11.72439236111111  12.863581730769232 11.83984375  C 12.74939903846154 11.95529513888889  12.692307692307692 12.09201388888889  12.692307692307692 12.25  C 12.692307692307692 12.40798611111111  12.74939903846154 12.54470486111111  12.863581730769232 12.66015625  C 12.977764423076923 12.77560763888889  13.11298076923077 12.833333333333332  13.269230769230768 12.833333333333332  C 13.42548076923077 12.833333333333332  13.560697115384617 12.77560763888889  13.674879807692308 12.66015625  Z M 14.747596153846153 9.588541666666666  C 14.915865384615385 9.758680555555554  15 9.965277777777779  15 10.208333333333334  L 15 13.125  C 15 13.368055555555557  14.915865384615385 13.574652777777777  14.747596153846153 13.744791666666668  C 14.579326923076925 13.914930555555557  14.375000000000002 14  14.134615384615385 14  L 0.8653846153846154 14  C 0.6250000000000001 14  0.420673076923077 13.914930555555557  0.25240384615384615 13.744791666666668  C 0.08413461538461538 13.574652777777777  0 13.368055555555557  0 13.125  L 0 10.208333333333334  C 0 9.965277777777779  0.08413461538461538 9.758680555555554  0.25240384615384615 9.588541666666666  C 0.420673076923077 9.418402777777779  0.6250000000000001 9.333333333333334  0.8653846153846154 9.333333333333334  L 5.057091346153846 9.333333333333334  L 6.274038461538462 10.572916666666668  C 6.622596153846154 10.913194444444443  7.03125 11.083333333333332  7.5 11.083333333333332  C 7.96875 11.083333333333332  8.377403846153847 10.913194444444443  8.725961538461538 10.572916666666668  L 9.951923076923077 9.333333333333334  L 14.134615384615385 9.333333333333334  C 14.375000000000002 9.333333333333334  14.579326923076925 9.418402777777779  14.747596153846153 9.588541666666666  Z M 11.538461538461538 4.666666666666667  C 11.790865384615385 4.666666666666667  11.96814903846154 4.78515625  12.0703125 5.022135416666667  C 12.172475961538463 5.271267361111111  12.130408653846155 5.483940972222221  11.944110576923077 5.66015625  L 7.905649038461539 9.743489583333334  C 7.797475961538461 9.858940972222221  7.662259615384616 9.916666666666666  7.5 9.916666666666666  C 7.337740384615384 9.916666666666666  7.202524038461538 9.858940972222221  7.094350961538462 9.743489583333334  L 3.055889423076923 5.66015625  C 2.8695913461538463 5.483940972222221  2.8275240384615388 5.271267361111111  2.9296875 5.022135416666667  C 3.031850961538462 4.78515625  3.2091346153846154 4.666666666666667  3.4615384615384617 4.666666666666667  L 5.769230769230769 4.666666666666667  L 5.769230769230769 0.5833333333333328  C 5.769230769230769 0.4253472222222203  5.826322115384616 0.2886284722222203  5.9405048076923075 0.17317708333333282  C 6.054687500000001 0.05772569444444531  6.189903846153847 0  6.346153846153846 0  L 8.653846153846153 0  C 8.810096153846153 0  8.945312500000002 0.05772569444444531  9.059495192307692 0.17317708333333282  C 9.173677884615385 0.2886284722222203  9.230769230769232 0.4253472222222203  9.230769230769232 0.5833333333333328  L 9.230769230769232 4.666666666666667  L 11.538461538461538 4.666666666666667  Z " fill-rule="evenodd" />
    </mask>
  </defs>
  <g transform="matrix(1 0 0 1 -1329 -119 )">
    <path d="M 11.3671875 12.66015625  C 11.481370192307693 12.54470486111111  11.538461538461538 12.40798611111111  11.538461538461538 12.25  C 11.538461538461538 12.09201388888889  11.481370192307693 11.95529513888889  11.3671875 11.83984375  C 11.253004807692308 11.72439236111111  11.117788461538463 11.666666666666668  10.961538461538462 11.666666666666668  C 10.805288461538462 11.666666666666668  10.670072115384617 11.72439236111111  10.555889423076923 11.83984375  C 10.441706730769232 11.95529513888889  10.384615384615385 12.09201388888889  10.384615384615385 12.25  C 10.384615384615385 12.40798611111111  10.441706730769232 12.54470486111111  10.555889423076923 12.66015625  C 10.670072115384617 12.77560763888889  10.805288461538462 12.833333333333332  10.961538461538462 12.833333333333332  C 11.117788461538463 12.833333333333332  11.253004807692308 12.77560763888889  11.3671875 12.66015625  Z M 13.674879807692308 12.66015625  C 13.789062499999998 12.54470486111111  13.846153846153847 12.40798611111111  13.846153846153847 12.25  C 13.846153846153847 12.09201388888889  13.789062499999998 11.95529513888889  13.674879807692308 11.83984375  C 13.560697115384617 11.72439236111111  13.42548076923077 11.666666666666668  13.269230769230768 11.666666666666668  C 13.11298076923077 11.666666666666668  12.977764423076923 11.72439236111111  12.863581730769232 11.83984375  C 12.74939903846154 11.95529513888889  12.692307692307692 12.09201388888889  12.692307692307692 12.25  C 12.692307692307692 12.40798611111111  12.74939903846154 12.54470486111111  12.863581730769232 12.66015625  C 12.977764423076923 12.77560763888889  13.11298076923077 12.833333333333332  13.269230769230768 12.833333333333332  C 13.42548076923077 12.833333333333332  13.560697115384617 12.77560763888889  13.674879807692308 12.66015625  Z M 14.747596153846153 9.588541666666666  C 14.915865384615385 9.758680555555554  15 9.965277777777779  15 10.208333333333334  L 15 13.125  C 15 13.368055555555557  14.915865384615385 13.574652777777777  14.747596153846153 13.744791666666668  C 14.579326923076925 13.914930555555557  14.375000000000002 14  14.134615384615385 14  L 0.8653846153846154 14  C 0.6250000000000001 14  0.420673076923077 13.914930555555557  0.25240384615384615 13.744791666666668  C 0.08413461538461538 13.574652777777777  0 13.368055555555557  0 13.125  L 0 10.208333333333334  C 0 9.965277777777779  0.08413461538461538 9.758680555555554  0.25240384615384615 9.588541666666666  C 0.420673076923077 9.418402777777779  0.6250000000000001 9.333333333333334  0.8653846153846154 9.333333333333334  L 5.057091346153846 9.333333333333334  L 6.274038461538462 10.572916666666668  C 6.622596153846154 10.913194444444443  7.03125 11.083333333333332  7.5 11.083333333333332  C 7.96875 11.083333333333332  8.377403846153847 10.913194444444443  8.725961538461538 10.572916666666668  L 9.951923076923077 9.333333333333334  L 14.134615384615385 9.333333333333334  C 14.375000000000002 9.333333333333334  14.579326923076925 9.418402777777779  14.747596153846153 9.588541666666666  Z M 11.538461538461538 4.666666666666667  C 11.790865384615385 4.666666666666667  11.96814903846154 4.78515625  12.0703125 5.022135416666667  C 12.172475961538463 5.271267361111111  12.130408653846155 5.483940972222221  11.944110576923077 5.66015625  L 7.905649038461539 9.743489583333334  C 7.797475961538461 9.858940972222221  7.662259615384616 9.916666666666666  7.5 9.916666666666666  C 7.337740384615384 9.916666666666666  7.202524038461538 9.858940972222221  7.094350961538462 9.743489583333334  L 3.055889423076923 5.66015625  C 2.8695913461538463 5.483940972222221  2.8275240384615388 5.271267361111111  2.9296875 5.022135416666667  C 3.031850961538462 4.78515625  3.2091346153846154 4.666666666666667  3.4615384615384617 4.666666666666667  L 5.769230769230769 4.666666666666667  L 5.769230769230769 0.5833333333333328  C 5.769230769230769 0.4253472222222203  5.826322115384616 0.2886284722222203  5.9405048076923075 0.17317708333333282  C 6.054687500000001 0.05772569444444531  6.189903846153847 0  6.346153846153846 0  L 8.653846153846153 0  C 8.810096153846153 0  8.945312500000002 0.05772569444444531  9.059495192307692 0.17317708333333282  C 9.173677884615385 0.2886284722222203  9.230769230769232 0.4253472222222203  9.230769230769232 0.5833333333333328  L 9.230769230769232 4.666666666666667  L 11.538461538461538 4.666666666666667  Z " fill-rule="nonzero" fill="rgba(255, 255, 255, 1)" stroke="none" transform="matrix(1 0 0 1 1329 119 )" class="fill" />
    <path d="M 11.3671875 12.66015625  C 11.481370192307693 12.54470486111111  11.538461538461538 12.40798611111111  11.538461538461538 12.25  C 11.538461538461538 12.09201388888889  11.481370192307693 11.95529513888889  11.3671875 11.83984375  C 11.253004807692308 11.72439236111111  11.117788461538463 11.666666666666668  10.961538461538462 11.666666666666668  C 10.805288461538462 11.666666666666668  10.670072115384617 11.72439236111111  10.555889423076923 11.83984375  C 10.441706730769232 11.95529513888889  10.384615384615385 12.09201388888889  10.384615384615385 12.25  C 10.384615384615385 12.40798611111111  10.441706730769232 12.54470486111111  10.555889423076923 12.66015625  C 10.670072115384617 12.77560763888889  10.805288461538462 12.833333333333332  10.961538461538462 12.833333333333332  C 11.117788461538463 12.833333333333332  11.253004807692308 12.77560763888889  11.3671875 12.66015625  Z " stroke-width="0" stroke-dasharray="0" stroke="rgba(255, 255, 255, 0)" fill="none" transform="matrix(1 0 0 1 1329 119 )" class="stroke" mask="url(#Clip202)" />
    <path d="M 13.674879807692308 12.66015625  C 13.789062499999998 12.54470486111111  13.846153846153847 12.40798611111111  13.846153846153847 12.25  C 13.846153846153847 12.09201388888889  13.789062499999998 11.95529513888889  13.674879807692308 11.83984375  C 13.560697115384617 11.72439236111111  13.42548076923077 11.666666666666668  13.269230769230768 11.666666666666668  C 13.11298076923077 11.666666666666668  12.977764423076923 11.72439236111111  12.863581730769232 11.83984375  C 12.74939903846154 11.95529513888889  12.692307692307692 12.09201388888889  12.692307692307692 12.25  C 12.692307692307692 12.40798611111111  12.74939903846154 12.54470486111111  12.863581730769232 12.66015625  C 12.977764423076923 12.77560763888889  13.11298076923077 12.833333333333332  13.269230769230768 12.833333333333332  C 13.42548076923077 12.833333333333332  13.560697115384617 12.77560763888889  13.674879807692308 12.66015625  Z " stroke-width="0" stroke-dasharray="0" stroke="rgba(255, 255, 255, 0)" fill="none" transform="matrix(1 0 0 1 1329 119 )" class="stroke" mask="url(#Clip202)" />
    <path d="M 14.747596153846153 9.588541666666666  C 14.915865384615385 9.758680555555554  15 9.965277777777779  15 10.208333333333334  L 15 13.125  C 15 13.368055555555557  14.915865384615385 13.574652777777777  14.747596153846153 13.744791666666668  C 14.579326923076925 13.914930555555557  14.375000000000002 14  14.134615384615385 14  L 0.8653846153846154 14  C 0.6250000000000001 14  0.420673076923077 13.914930555555557  0.25240384615384615 13.744791666666668  C 0.08413461538461538 13.574652777777777  0 13.368055555555557  0 13.125  L 0 10.208333333333334  C 0 9.965277777777779  0.08413461538461538 9.758680555555554  0.25240384615384615 9.588541666666666  C 0.420673076923077 9.418402777777779  0.6250000000000001 9.333333333333334  0.8653846153846154 9.333333333333334  L 5.057091346153846 9.333333333333334  L 6.274038461538462 10.572916666666668  C 6.622596153846154 10.913194444444443  7.03125 11.083333333333332  7.5 11.083333333333332  C 7.96875 11.083333333333332  8.377403846153847 10.913194444444443  8.725961538461538 10.572916666666668  L 9.951923076923077 9.333333333333334  L 14.134615384615385 9.333333333333334  C 14.375000000000002 9.333333333333334  14.579326923076925 9.418402777777779  14.747596153846153 9.588541666666666  Z " stroke-width="0" stroke-dasharray="0" stroke="rgba(255, 255, 255, 0)" fill="none" transform="matrix(1 0 0 1 1329 119 )" class="stroke" mask="url(#Clip202)" />
    <path d="M 11.538461538461538 4.666666666666667  C 11.790865384615385 4.666666666666667  11.96814903846154 4.78515625  12.0703125 5.022135416666667  C 12.172475961538463 5.271267361111111  12.130408653846155 5.483940972222221  11.944110576923077 5.66015625  L 7.905649038461539 9.743489583333334  C 7.797475961538461 9.858940972222221  7.662259615384616 9.916666666666666  7.5 9.916666666666666  C 7.337740384615384 9.916666666666666  7.202524038461538 9.858940972222221  7.094350961538462 9.743489583333334  L 3.055889423076923 5.66015625  C 2.8695913461538463 5.483940972222221  2.8275240384615388 5.271267361111111  2.9296875 5.022135416666667  C 3.031850961538462 4.78515625  3.2091346153846154 4.666666666666667  3.4615384615384617 4.666666666666667  L 5.769230769230769 4.666666666666667  L 5.769230769230769 0.5833333333333328  C 5.769230769230769 0.4253472222222203  5.826322115384616 0.2886284722222203  5.9405048076923075 0.17317708333333282  C 6.054687500000001 0.05772569444444531  6.189903846153847 0  6.346153846153846 0  L 8.653846153846153 0  C 8.810096153846153 0  8.945312500000002 0.05772569444444531  9.059495192307692 0.17317708333333282  C 9.173677884615385 0.2886284722222203  9.230769230769232 0.4253472222222203  9.230769230769232 0.5833333333333328  L 9.230769230769232 4.666666666666667  L 11.538461538461538 4.666666666666667  Z " stroke-width="0" stroke-dasharray="0" stroke="rgba(255, 255, 255, 0)" fill="none" transform="matrix(1 0 0 1 1329 119 )" class="stroke" mask="url(#Clip202)" />
  </g>
</svg>