<?xml version="1.0" encoding="utf-8"?>
<svg version="1.1" xmlns:xlink="http://www.w3.org/1999/xlink" width="18px" height="17px" xmlns="http://www.w3.org/2000/svg">
  <defs>
    <pattern id="BGPattern" patternUnits="userSpaceOnUse" alignment="0 0" imageRepeat="None" />
    <mask fill="white" id="Clip21">
      <path d="M 4.153846153846154 12.75  L 4.153846153846154 15.583333333333332  L 13.846153846153847 15.583333333333332  L 13.846153846153847 12.75  L 4.153846153846154 12.75  Z M 4.153846153846154 1.4166666666666674  L 4.153846153846154 8.5  L 13.846153846153847 8.5  L 13.846153846153847 4.25  L 12.115384615384617 4.25  C 11.826923076923078 4.25  11.58173076923077 4.1467013888888875  11.379807692307692 3.9401041666666674  C 11.177884615384617 3.733506944444443  11.076923076923077 3.482638888888888  11.076923076923077 3.1875  L 11.076923076923077 1.4166666666666674  L 4.153846153846154 1.4166666666666674  Z M 16.40985576923077 9.706380208333334  C 16.546875 9.56618923611111  16.615384615384617 9.40017361111111  16.615384615384617 9.208333333333334  C 16.615384615384617 9.016493055555555  16.546875 8.850477430555555  16.40985576923077 8.710286458333334  C 16.27283653846154 8.57009548611111  16.110576923076923 8.5  15.923076923076923 8.5  C 15.735576923076923 8.5  15.573317307692308 8.57009548611111  15.436298076923077 8.710286458333334  C 15.299278846153848 8.850477430555555  15.23076923076923 9.016493055555555  15.23076923076923 9.208333333333334  C 15.23076923076923 9.40017361111111  15.299278846153848 9.56618923611111  15.436298076923077 9.706380208333334  C 15.573317307692308 9.846571180555555  15.735576923076923 9.916666666666666  15.923076923076923 9.916666666666666  C 16.110576923076923 9.916666666666666  16.27283653846154 9.846571180555555  16.40985576923077 9.706380208333334  Z M 17.388822115384617 7.708658854166667  C 17.79627403846154 8.125542534722223  18 8.625434027777775  18 9.208333333333334  L 18 13.8125  C 18 13.90842013888889  17.965745192307693 13.99142795138889  17.897235576923077 14.0615234375  C 17.828725961538463 14.13161892361111  17.747596153846153 14.166666666666668  17.653846153846153 14.166666666666668  L 15.23076923076923 14.166666666666668  L 15.23076923076923 15.9375  C 15.23076923076923 16.23263888888889  15.129807692307693 16.483506944444443  14.927884615384617 16.690104166666668  C 14.72596153846154 16.89670138888889  14.480769230769232 17  14.192307692307692 17  L 3.8076923076923075 17  C 3.5192307692307696 17  3.2740384615384617 16.89670138888889  3.0721153846153846 16.690104166666668  C 2.870192307692308 16.483506944444443  2.769230769230769 16.23263888888889  2.769230769230769 15.9375  L 2.769230769230769 14.166666666666668  L 0.34615384615384615 14.166666666666668  C 0.2524038461538462 14.166666666666668  0.1712740384615385 14.13161892361111  0.10276442307692307 14.0615234375  C 0.03425480769230769 13.99142795138889  0 13.90842013888889  0 13.8125  L 0 9.208333333333334  C 0 8.625434027777775  0.20372596153846154 8.125542534722223  0.6111778846153846 7.708658854166667  C 1.0186298076923077 7.2917751736111125  1.5072115384615385 7.083333333333333  2.076923076923077 7.083333333333333  L 2.769230769230769 7.083333333333333  L 2.769230769230769 1.0625  C 2.769230769230769 0.7673611111111103  2.870192307692308 0.5164930555555532  3.0721153846153846 0.3098958333333327  C 3.2740384615384617 0.10329861111111027  3.5192307692307696 0  3.8076923076923075 0  L 11.076923076923077 0  C 11.365384615384617 0  11.682692307692308 0.07378472222222054  12.028846153846153 0.2213541666666673  C 12.375 0.3689236111111103  12.649038461538463 0.546006944444443  12.850961538461538 0.7526041666666673  L 14.495192307692308 2.4348958333333326  C 14.697115384615387 2.641493055555553  14.870192307692308 2.921875  15.014423076923077 3.2760416666666674  C 15.158653846153848 3.6302083333333326  15.23076923076923 3.9548611111111103  15.23076923076923 4.25  L 15.23076923076923 7.083333333333333  L 15.923076923076923 7.083333333333333  C 16.492788461538463 7.083333333333333  16.981370192307693 7.2917751736111125  17.388822115384617 7.708658854166667  Z " fill-rule="evenodd" />
    </mask>
  </defs>
  <g transform="matrix(1 0 0 1 -13 -112 )">
    <path d="M 4.153846153846154 12.75  L 4.153846153846154 15.583333333333332  L 13.846153846153847 15.583333333333332  L 13.846153846153847 12.75  L 4.153846153846154 12.75  Z M 4.153846153846154 1.4166666666666674  L 4.153846153846154 8.5  L 13.846153846153847 8.5  L 13.846153846153847 4.25  L 12.115384615384617 4.25  C 11.826923076923078 4.25  11.58173076923077 4.1467013888888875  11.379807692307692 3.9401041666666674  C 11.177884615384617 3.733506944444443  11.076923076923077 3.482638888888888  11.076923076923077 3.1875  L 11.076923076923077 1.4166666666666674  L 4.153846153846154 1.4166666666666674  Z M 16.40985576923077 9.706380208333334  C 16.546875 9.56618923611111  16.615384615384617 9.40017361111111  16.615384615384617 9.208333333333334  C 16.615384615384617 9.016493055555555  16.546875 8.850477430555555  16.40985576923077 8.710286458333334  C 16.27283653846154 8.57009548611111  16.110576923076923 8.5  15.923076923076923 8.5  C 15.735576923076923 8.5  15.573317307692308 8.57009548611111  15.436298076923077 8.710286458333334  C 15.299278846153848 8.850477430555555  15.23076923076923 9.016493055555555  15.23076923076923 9.208333333333334  C 15.23076923076923 9.40017361111111  15.299278846153848 9.56618923611111  15.436298076923077 9.706380208333334  C 15.573317307692308 9.846571180555555  15.735576923076923 9.916666666666666  15.923076923076923 9.916666666666666  C 16.110576923076923 9.916666666666666  16.27283653846154 9.846571180555555  16.40985576923077 9.706380208333334  Z M 17.388822115384617 7.708658854166667  C 17.79627403846154 8.125542534722223  18 8.625434027777775  18 9.208333333333334  L 18 13.8125  C 18 13.90842013888889  17.965745192307693 13.99142795138889  17.897235576923077 14.0615234375  C 17.828725961538463 14.13161892361111  17.747596153846153 14.166666666666668  17.653846153846153 14.166666666666668  L 15.23076923076923 14.166666666666668  L 15.23076923076923 15.9375  C 15.23076923076923 16.23263888888889  15.129807692307693 16.483506944444443  14.927884615384617 16.690104166666668  C 14.72596153846154 16.89670138888889  14.480769230769232 17  14.192307692307692 17  L 3.8076923076923075 17  C 3.5192307692307696 17  3.2740384615384617 16.89670138888889  3.0721153846153846 16.690104166666668  C 2.870192307692308 16.483506944444443  2.769230769230769 16.23263888888889  2.769230769230769 15.9375  L 2.769230769230769 14.166666666666668  L 0.34615384615384615 14.166666666666668  C 0.2524038461538462 14.166666666666668  0.1712740384615385 14.13161892361111  0.10276442307692307 14.0615234375  C 0.03425480769230769 13.99142795138889  0 13.90842013888889  0 13.8125  L 0 9.208333333333334  C 0 8.625434027777775  0.20372596153846154 8.125542534722223  0.6111778846153846 7.708658854166667  C 1.0186298076923077 7.2917751736111125  1.5072115384615385 7.083333333333333  2.076923076923077 7.083333333333333  L 2.769230769230769 7.083333333333333  L 2.769230769230769 1.0625  C 2.769230769230769 0.7673611111111103  2.870192307692308 0.5164930555555532  3.0721153846153846 0.3098958333333327  C 3.2740384615384617 0.10329861111111027  3.5192307692307696 0  3.8076923076923075 0  L 11.076923076923077 0  C 11.365384615384617 0  11.682692307692308 0.07378472222222054  12.028846153846153 0.2213541666666673  C 12.375 0.3689236111111103  12.649038461538463 0.546006944444443  12.850961538461538 0.7526041666666673  L 14.495192307692308 2.4348958333333326  C 14.697115384615387 2.641493055555553  14.870192307692308 2.921875  15.014423076923077 3.2760416666666674  C 15.158653846153848 3.6302083333333326  15.23076923076923 3.9548611111111103  15.23076923076923 4.25  L 15.23076923076923 7.083333333333333  L 15.923076923076923 7.083333333333333  C 16.492788461538463 7.083333333333333  16.981370192307693 7.2917751736111125  17.388822115384617 7.708658854166667  Z " fill-rule="nonzero" fill="rgba(51, 51, 51, 1)" stroke="none" transform="matrix(1 0 0 1 13 112 )" class="fill" />
    <path d="M 4.153846153846154 12.75  L 4.153846153846154 15.583333333333332  L 13.846153846153847 15.583333333333332  L 13.846153846153847 12.75  L 4.153846153846154 12.75  Z " stroke-width="0" stroke-dasharray="0" stroke="rgba(255, 255, 255, 0)" fill="none" transform="matrix(1 0 0 1 13 112 )" class="stroke" mask="url(#Clip21)" />
    <path d="M 4.153846153846154 1.4166666666666674  L 4.153846153846154 8.5  L 13.846153846153847 8.5  L 13.846153846153847 4.25  L 12.115384615384617 4.25  C 11.826923076923078 4.25  11.58173076923077 4.1467013888888875  11.379807692307692 3.9401041666666674  C 11.177884615384617 3.733506944444443  11.076923076923077 3.482638888888888  11.076923076923077 3.1875  L 11.076923076923077 1.4166666666666674  L 4.153846153846154 1.4166666666666674  Z " stroke-width="0" stroke-dasharray="0" stroke="rgba(255, 255, 255, 0)" fill="none" transform="matrix(1 0 0 1 13 112 )" class="stroke" mask="url(#Clip21)" />
    <path d="M 16.40985576923077 9.706380208333334  C 16.546875 9.56618923611111  16.615384615384617 9.40017361111111  16.615384615384617 9.208333333333334  C 16.615384615384617 9.016493055555555  16.546875 8.850477430555555  16.40985576923077 8.710286458333334  C 16.27283653846154 8.57009548611111  16.110576923076923 8.5  15.923076923076923 8.5  C 15.735576923076923 8.5  15.573317307692308 8.57009548611111  15.436298076923077 8.710286458333334  C 15.299278846153848 8.850477430555555  15.23076923076923 9.016493055555555  15.23076923076923 9.208333333333334  C 15.23076923076923 9.40017361111111  15.299278846153848 9.56618923611111  15.436298076923077 9.706380208333334  C 15.573317307692308 9.846571180555555  15.735576923076923 9.916666666666666  15.923076923076923 9.916666666666666  C 16.110576923076923 9.916666666666666  16.27283653846154 9.846571180555555  16.40985576923077 9.706380208333334  Z " stroke-width="0" stroke-dasharray="0" stroke="rgba(255, 255, 255, 0)" fill="none" transform="matrix(1 0 0 1 13 112 )" class="stroke" mask="url(#Clip21)" />
    <path d="M 17.388822115384617 7.708658854166667  C 17.79627403846154 8.125542534722223  18 8.625434027777775  18 9.208333333333334  L 18 13.8125  C 18 13.90842013888889  17.965745192307693 13.99142795138889  17.897235576923077 14.0615234375  C 17.828725961538463 14.13161892361111  17.747596153846153 14.166666666666668  17.653846153846153 14.166666666666668  L 15.23076923076923 14.166666666666668  L 15.23076923076923 15.9375  C 15.23076923076923 16.23263888888889  15.129807692307693 16.483506944444443  14.927884615384617 16.690104166666668  C 14.72596153846154 16.89670138888889  14.480769230769232 17  14.192307692307692 17  L 3.8076923076923075 17  C 3.5192307692307696 17  3.2740384615384617 16.89670138888889  3.0721153846153846 16.690104166666668  C 2.870192307692308 16.483506944444443  2.769230769230769 16.23263888888889  2.769230769230769 15.9375  L 2.769230769230769 14.166666666666668  L 0.34615384615384615 14.166666666666668  C 0.2524038461538462 14.166666666666668  0.1712740384615385 14.13161892361111  0.10276442307692307 14.0615234375  C 0.03425480769230769 13.99142795138889  0 13.90842013888889  0 13.8125  L 0 9.208333333333334  C 0 8.625434027777775  0.20372596153846154 8.125542534722223  0.6111778846153846 7.708658854166667  C 1.0186298076923077 7.2917751736111125  1.5072115384615385 7.083333333333333  2.076923076923077 7.083333333333333  L 2.769230769230769 7.083333333333333  L 2.769230769230769 1.0625  C 2.769230769230769 0.7673611111111103  2.870192307692308 0.5164930555555532  3.0721153846153846 0.3098958333333327  C 3.2740384615384617 0.10329861111111027  3.5192307692307696 0  3.8076923076923075 0  L 11.076923076923077 0  C 11.365384615384617 0  11.682692307692308 0.07378472222222054  12.028846153846153 0.2213541666666673  C 12.375 0.3689236111111103  12.649038461538463 0.546006944444443  12.850961538461538 0.7526041666666673  L 14.495192307692308 2.4348958333333326  C 14.697115384615387 2.641493055555553  14.870192307692308 2.921875  15.014423076923077 3.2760416666666674  C 15.158653846153848 3.6302083333333326  15.23076923076923 3.9548611111111103  15.23076923076923 4.25  L 15.23076923076923 7.083333333333333  L 15.923076923076923 7.083333333333333  C 16.492788461538463 7.083333333333333  16.981370192307693 7.2917751736111125  17.388822115384617 7.708658854166667  Z " stroke-width="0" stroke-dasharray="0" stroke="rgba(255, 255, 255, 0)" fill="none" transform="matrix(1 0 0 1 13 112 )" class="stroke" mask="url(#Clip21)" />
  </g>
</svg>