<?xml version="1.0" encoding="utf-8"?>
<svg version="1.1" xmlns:xlink="http://www.w3.org/1999/xlink" width="16px" height="15px" xmlns="http://www.w3.org/2000/svg">
  <defs>
    <pattern id="BGPattern" patternUnits="userSpaceOnUse" alignment="0 0" imageRepeat="None" />
    <mask fill="white" id="Clip23">
      <path d="M 15.622895622895623 11.212121212121211  C 15.874298540965208 11.447811447811446  16 11.734006734006732  16 12.070707070707071  C 16 12.407407407407408  15.874298540965208 12.693602693602692  15.622895622895623 12.929292929292929  L 13.79124579124579 14.646464646464647  C 13.539842873176209 14.882154882154882  13.234567901234568 15  12.875420875420875 15  C 12.516273849607185 15  12.210998877665546 14.882154882154882  11.95959595959596 14.646464646464647  L 8 10.934343434343436  L 4.040404040404041 14.646464646464647  C 3.789001122334456 14.882154882154882  3.483726150392817 15  3.1245791245791246 15  C 2.7654320987654324 15  2.460157126823794 14.882154882154882  2.208754208754209 14.646464646464647  L 0.3771043771043771 12.929292929292929  C 0.1257014590347925 12.693602693602692  0 12.407407407407408  0 12.070707070707071  C 0 11.734006734006732  0.1257014590347925 11.447811447811446  0.3771043771043771 11.212121212121211  L 4.3367003367003365 7.5  L 0.3771043771043771 3.787878787878787  C 0.1257014590347925 3.552188552188551  0 3.265993265993266  0 2.929292929292929  C 0 2.5925925925925926  0.1257014590347925 2.3063973063973044  0.3771043771043771 2.0707070707070714  L 2.208754208754209 0.3535353535353536  C 2.460157126823794 0.11784511784511731  2.7654320987654324 0  3.1245791245791246 0  C 3.483726150392817 0  3.789001122334456 0.11784511784511731  4.040404040404041 0.3535353535353536  L 8 4.065656565656567  L 11.95959595959596 0.3535353535353536  C 12.210998877665546 0.11784511784511731  12.516273849607185 0  12.875420875420875 0  C 13.234567901234568 0  13.539842873176209 0.11784511784511731  13.79124579124579 0.3535353535353536  L 15.622895622895623 2.0707070707070714  C 15.874298540965208 2.3063973063973044  16 2.5925925925925926  16 2.929292929292929  C 16 3.265993265993266  15.874298540965208 3.552188552188551  15.622895622895623 3.787878787878787  L 11.663299663299663 7.5  L 15.622895622895623 11.212121212121211  Z " fill-rule="evenodd" />
    </mask>
  </defs>
  <g transform="matrix(1 0 0 1 -871 -22 )">
    <path d="M 15.622895622895623 11.212121212121211  C 15.874298540965208 11.447811447811446  16 11.734006734006732  16 12.070707070707071  C 16 12.407407407407408  15.874298540965208 12.693602693602692  15.622895622895623 12.929292929292929  L 13.79124579124579 14.646464646464647  C 13.539842873176209 14.882154882154882  13.234567901234568 15  12.875420875420875 15  C 12.516273849607185 15  12.210998877665546 14.882154882154882  11.95959595959596 14.646464646464647  L 8 10.934343434343436  L 4.040404040404041 14.646464646464647  C 3.789001122334456 14.882154882154882  3.483726150392817 15  3.1245791245791246 15  C 2.7654320987654324 15  2.460157126823794 14.882154882154882  2.208754208754209 14.646464646464647  L 0.3771043771043771 12.929292929292929  C 0.1257014590347925 12.693602693602692  0 12.407407407407408  0 12.070707070707071  C 0 11.734006734006732  0.1257014590347925 11.447811447811446  0.3771043771043771 11.212121212121211  L 4.3367003367003365 7.5  L 0.3771043771043771 3.787878787878787  C 0.1257014590347925 3.552188552188551  0 3.265993265993266  0 2.929292929292929  C 0 2.5925925925925926  0.1257014590347925 2.3063973063973044  0.3771043771043771 2.0707070707070714  L 2.208754208754209 0.3535353535353536  C 2.460157126823794 0.11784511784511731  2.7654320987654324 0  3.1245791245791246 0  C 3.483726150392817 0  3.789001122334456 0.11784511784511731  4.040404040404041 0.3535353535353536  L 8 4.065656565656567  L 11.95959595959596 0.3535353535353536  C 12.210998877665546 0.11784511784511731  12.516273849607185 0  12.875420875420875 0  C 13.234567901234568 0  13.539842873176209 0.11784511784511731  13.79124579124579 0.3535353535353536  L 15.622895622895623 2.0707070707070714  C 15.874298540965208 2.3063973063973044  16 2.5925925925925926  16 2.929292929292929  C 16 3.265993265993266  15.874298540965208 3.552188552188551  15.622895622895623 3.787878787878787  L 11.663299663299663 7.5  L 15.622895622895623 11.212121212121211  Z " fill-rule="nonzero" fill="rgba(0, 0, 0, 1)" stroke="none" transform="matrix(1 0 0 1 871 22 )" class="fill" />
    <path d="M 15.622895622895623 11.212121212121211  C 15.874298540965208 11.447811447811446  16 11.734006734006732  16 12.070707070707071  C 16 12.407407407407408  15.874298540965208 12.693602693602692  15.622895622895623 12.929292929292929  L 13.79124579124579 14.646464646464647  C 13.539842873176209 14.882154882154882  13.234567901234568 15  12.875420875420875 15  C 12.516273849607185 15  12.210998877665546 14.882154882154882  11.95959595959596 14.646464646464647  L 8 10.934343434343436  L 4.040404040404041 14.646464646464647  C 3.789001122334456 14.882154882154882  3.483726150392817 15  3.1245791245791246 15  C 2.7654320987654324 15  2.460157126823794 14.882154882154882  2.208754208754209 14.646464646464647  L 0.3771043771043771 12.929292929292929  C 0.1257014590347925 12.693602693602692  0 12.407407407407408  0 12.070707070707071  C 0 11.734006734006732  0.1257014590347925 11.447811447811446  0.3771043771043771 11.212121212121211  L 4.3367003367003365 7.5  L 0.3771043771043771 3.787878787878787  C 0.1257014590347925 3.552188552188551  0 3.265993265993266  0 2.929292929292929  C 0 2.5925925925925926  0.1257014590347925 2.3063973063973044  0.3771043771043771 2.0707070707070714  L 2.208754208754209 0.3535353535353536  C 2.460157126823794 0.11784511784511731  2.7654320987654324 0  3.1245791245791246 0  C 3.483726150392817 0  3.789001122334456 0.11784511784511731  4.040404040404041 0.3535353535353536  L 8 4.065656565656567  L 11.95959595959596 0.3535353535353536  C 12.210998877665546 0.11784511784511731  12.516273849607185 0  12.875420875420875 0  C 13.234567901234568 0  13.539842873176209 0.11784511784511731  13.79124579124579 0.3535353535353536  L 15.622895622895623 2.0707070707070714  C 15.874298540965208 2.3063973063973044  16 2.5925925925925926  16 2.929292929292929  C 16 3.265993265993266  15.874298540965208 3.552188552188551  15.622895622895623 3.787878787878787  L 11.663299663299663 7.5  L 15.622895622895623 11.212121212121211  Z " stroke-width="0" stroke-dasharray="0" stroke="rgba(255, 255, 255, 0)" fill="none" transform="matrix(1 0 0 1 871 22 )" class="stroke" mask="url(#Clip23)" />
  </g>
</svg>