<?xml version="1.0" encoding="utf-8"?>
<svg version="1.1" xmlns:xlink="http://www.w3.org/1999/xlink" width="8px" height="4px" xmlns="http://www.w3.org/2000/svg">
  <defs>
    <pattern id="BGPattern" patternUnits="userSpaceOnUse" alignment="0 0" imageRepeat="None" />
    <mask fill="white" id="Clip32">
      <path d="M 7.8515625 3.2430555555555554  C 7.950520833333334 3.3310185185185173  8 3.4351851851851842  8 3.5555555555555554  C 8 3.6759259259259256  7.950520833333334 3.780092592592592  7.8515625 3.8680555555555554  C 7.752604166666667 3.956018518518519  7.635416666666667 4  7.5 4  L 0.5 4  C 0.36458333333333337 4  0.24739583333333334 3.956018518518519  0.1484375 3.8680555555555554  C 0.049479166666666664 3.780092592592592  0 3.6759259259259256  0 3.5555555555555554  C 0 3.4351851851851842  0.049479166666666664 3.3310185185185173  0.1484375 3.2430555555555554  L 3.6484375 0.13194444444444464  C 3.747395833333334 0.043981481481480955  3.864583333333334 0  4 0  C 4.135416666666667 0  4.252604166666667 0.043981481481480955  4.3515625 0.13194444444444464  L 7.8515625 3.2430555555555554  Z " fill-rule="evenodd" />
    </mask>
  </defs>
  <g transform="matrix(1 0 0 1 -124 -276 )">
    <path d="M 7.8515625 3.2430555555555554  C 7.950520833333334 3.3310185185185173  8 3.4351851851851842  8 3.5555555555555554  C 8 3.6759259259259256  7.950520833333334 3.780092592592592  7.8515625 3.8680555555555554  C 7.752604166666667 3.956018518518519  7.635416666666667 4  7.5 4  L 0.5 4  C 0.36458333333333337 4  0.24739583333333334 3.956018518518519  0.1484375 3.8680555555555554  C 0.049479166666666664 3.780092592592592  0 3.6759259259259256  0 3.5555555555555554  C 0 3.4351851851851842  0.049479166666666664 3.3310185185185173  0.1484375 3.2430555555555554  L 3.6484375 0.13194444444444464  C 3.747395833333334 0.043981481481480955  3.864583333333334 0  4 0  C 4.135416666666667 0  4.252604166666667 0.043981481481480955  4.3515625 0.13194444444444464  L 7.8515625 3.2430555555555554  Z " fill-rule="nonzero" fill="rgba(0, 0, 0, 1)" stroke="none" transform="matrix(1 0 0 1 124 276 )" class="fill" />
    <path d="M 7.8515625 3.2430555555555554  C 7.950520833333334 3.3310185185185173  8 3.4351851851851842  8 3.5555555555555554  C 8 3.6759259259259256  7.950520833333334 3.780092592592592  7.8515625 3.8680555555555554  C 7.752604166666667 3.956018518518519  7.635416666666667 4  7.5 4  L 0.5 4  C 0.36458333333333337 4  0.24739583333333334 3.956018518518519  0.1484375 3.8680555555555554  C 0.049479166666666664 3.780092592592592  0 3.6759259259259256  0 3.5555555555555554  C 0 3.4351851851851842  0.049479166666666664 3.3310185185185173  0.1484375 3.2430555555555554  L 3.6484375 0.13194444444444464  C 3.747395833333334 0.043981481481480955  3.864583333333334 0  4 0  C 4.135416666666667 0  4.252604166666667 0.043981481481480955  4.3515625 0.13194444444444464  L 7.8515625 3.2430555555555554  Z " stroke-width="0" stroke-dasharray="0" stroke="rgba(255, 255, 255, 0)" fill="none" transform="matrix(1 0 0 1 124 276 )" class="stroke" mask="url(#Clip32)" />
  </g>
</svg>