<?xml version="1.0" encoding="utf-8"?>
<svg version="1.1" xmlns:xlink="http://www.w3.org/1999/xlink" width="10px" height="5px" xmlns="http://www.w3.org/2000/svg">
  <defs>
    <pattern id="BGPattern" patternUnits="userSpaceOnUse" alignment="0 0" imageRepeat="None" />
    <mask fill="white" id="Clip201">
      <path d="M 9.814453125 0.1649305555555558  C 9.938151041666668 0.27488425925925875  10 0.40509259259259134  10 0.5555555555555558  C 10 0.706018518518518  9.938151041666668 0.8362268518518512  9.814453125 0.9461805555555558  L 5.439453125 4.835069444444445  C 5.315755208333334 4.945023148148149  5.169270833333334 5  5 5  C 4.830729166666668 5  4.684244791666668 4.945023148148149  4.560546875 4.835069444444445  L 0.185546875 0.9461805555555558  C 0.06184895833333333 0.8362268518518512  0 0.706018518518518  0 0.5555555555555558  C 0 0.40509259259259134  0.06184895833333333 0.27488425925925875  0.185546875 0.1649305555555558  C 0.3092447916666667 0.054976851851851194  0.45572916666666674 0  0.625 0  L 9.375 0  C 9.544270833333334 0  9.690755208333334 0.054976851851851194  9.814453125 0.1649305555555558  Z " fill-rule="evenodd" />
    </mask>
  </defs>
  <g transform="matrix(1 0 0 1 -551 -187 )">
    <path d="M 9.814453125 0.1649305555555558  C 9.938151041666668 0.27488425925925875  10 0.40509259259259134  10 0.5555555555555558  C 10 0.706018518518518  9.938151041666668 0.8362268518518512  9.814453125 0.9461805555555558  L 5.439453125 4.835069444444445  C 5.315755208333334 4.945023148148149  5.169270833333334 5  5 5  C 4.830729166666668 5  4.684244791666668 4.945023148148149  4.560546875 4.835069444444445  L 0.185546875 0.9461805555555558  C 0.06184895833333333 0.8362268518518512  0 0.706018518518518  0 0.5555555555555558  C 0 0.40509259259259134  0.06184895833333333 0.27488425925925875  0.185546875 0.1649305555555558  C 0.3092447916666667 0.054976851851851194  0.45572916666666674 0  0.625 0  L 9.375 0  C 9.544270833333334 0  9.690755208333334 0.054976851851851194  9.814453125 0.1649305555555558  Z " fill-rule="nonzero" fill="rgba(0, 0, 0, 1)" stroke="none" transform="matrix(1 0 0 1 551 187 )" class="fill" />
    <path d="M 9.814453125 0.1649305555555558  C 9.938151041666668 0.27488425925925875  10 0.40509259259259134  10 0.5555555555555558  C 10 0.706018518518518  9.938151041666668 0.8362268518518512  9.814453125 0.9461805555555558  L 5.439453125 4.835069444444445  C 5.315755208333334 4.945023148148149  5.169270833333334 5  5 5  C 4.830729166666668 5  4.684244791666668 4.945023148148149  4.560546875 4.835069444444445  L 0.185546875 0.9461805555555558  C 0.06184895833333333 0.8362268518518512  0 0.706018518518518  0 0.5555555555555558  C 0 0.40509259259259134  0.06184895833333333 0.27488425925925875  0.185546875 0.1649305555555558  C 0.3092447916666667 0.054976851851851194  0.45572916666666674 0  0.625 0  L 9.375 0  C 9.544270833333334 0  9.690755208333334 0.054976851851851194  9.814453125 0.1649305555555558  Z " stroke-width="0" stroke-dasharray="0" stroke="rgba(255, 255, 255, 0)" fill="none" transform="matrix(1 0 0 1 551 187 )" class="stroke" mask="url(#Clip201)" />
  </g>
</svg>