<?xml version="1.0" encoding="utf-8"?>
<svg version="1.1" xmlns:xlink="http://www.w3.org/1999/xlink" width="10px" height="5px" xmlns="http://www.w3.org/2000/svg">
  <defs>
    <pattern id="BGPattern" patternUnits="userSpaceOnUse" alignment="0 0" imageRepeat="None" />
    <mask fill="white" id="Clip34">
      <path d="M 9.814453125 4.053819444444445  C 9.938151041666668 4.163773148148147  10 4.29398148148148  10 4.444444444444445  C 10 4.5949074074074066  9.938151041666668 4.7251157407407405  9.814453125 4.835069444444445  C 9.690755208333334 4.945023148148149  9.544270833333334 5  9.375 5  L 0.625 5  C 0.45572916666666674 5  0.3092447916666667 4.945023148148149  0.185546875 4.835069444444445  C 0.06184895833333333 4.7251157407407405  0 4.5949074074074066  0 4.444444444444445  C 0 4.29398148148148  0.06184895833333333 4.163773148148147  0.185546875 4.053819444444445  L 4.560546875 0.1649305555555558  C 4.684244791666668 0.054976851851851194  4.830729166666668 0  5 0  C 5.169270833333334 0  5.315755208333334 0.054976851851851194  5.439453125 0.1649305555555558  L 9.814453125 4.053819444444445  Z " fill-rule="evenodd" />
    </mask>
  </defs>
  <g transform="matrix(1 0 0 1 -551 -135 )">
    <path d="M 9.814453125 4.053819444444445  C 9.938151041666668 4.163773148148147  10 4.29398148148148  10 4.444444444444445  C 10 4.5949074074074066  9.938151041666668 4.7251157407407405  9.814453125 4.835069444444445  C 9.690755208333334 4.945023148148149  9.544270833333334 5  9.375 5  L 0.625 5  C 0.45572916666666674 5  0.3092447916666667 4.945023148148149  0.185546875 4.835069444444445  C 0.06184895833333333 4.7251157407407405  0 4.5949074074074066  0 4.444444444444445  C 0 4.29398148148148  0.06184895833333333 4.163773148148147  0.185546875 4.053819444444445  L 4.560546875 0.1649305555555558  C 4.684244791666668 0.054976851851851194  4.830729166666668 0  5 0  C 5.169270833333334 0  5.315755208333334 0.054976851851851194  5.439453125 0.1649305555555558  L 9.814453125 4.053819444444445  Z " fill-rule="nonzero" fill="rgba(0, 0, 0, 1)" stroke="none" transform="matrix(1 0 0 1 551 135 )" class="fill" />
    <path d="M 9.814453125 4.053819444444445  C 9.938151041666668 4.163773148148147  10 4.29398148148148  10 4.444444444444445  C 10 4.5949074074074066  9.938151041666668 4.7251157407407405  9.814453125 4.835069444444445  C 9.690755208333334 4.945023148148149  9.544270833333334 5  9.375 5  L 0.625 5  C 0.45572916666666674 5  0.3092447916666667 4.945023148148149  0.185546875 4.835069444444445  C 0.06184895833333333 4.7251157407407405  0 4.5949074074074066  0 4.444444444444445  C 0 4.29398148148148  0.06184895833333333 4.163773148148147  0.185546875 4.053819444444445  L 4.560546875 0.1649305555555558  C 4.684244791666668 0.054976851851851194  4.830729166666668 0  5 0  C 5.169270833333334 0  5.315755208333334 0.054976851851851194  5.439453125 0.1649305555555558  L 9.814453125 4.053819444444445  Z " stroke-width="0" stroke-dasharray="0" stroke="rgba(255, 255, 255, 0)" fill="none" transform="matrix(1 0 0 1 551 135 )" class="stroke" mask="url(#Clip34)" />
  </g>
</svg>