<?xml version="1.0" encoding="utf-8"?>
<svg version="1.1" xmlns:xlink="http://www.w3.org/1999/xlink" width="24px" height="24px" xmlns="http://www.w3.org/2000/svg">
  <defs>
    <pattern id="BGPattern" patternUnits="userSpaceOnUse" alignment="0 0" imageRepeat="None" />
    <mask fill="white" id="Clip26">
      <path d="M 13.859375 6.140625  C 13.953125 6.234375  14 6.354166666666663  14 6.500000000000001  L 14 13.5  C 14 13.645833333333332  13.953125 13.765624999999998  13.859375 13.859374999999998  C 13.765625 13.953124999999998  13.645833333333336 13.999999999999998  13.5 13.999999999999998  L 8.5 13.999999999999998  C 8.354166666666668 13.999999999999998  8.234375 13.953124999999998  8.140625 13.859374999999998  C 8.046875 13.765624999999998  8 13.645833333333332  8 13.5  L 8 12.499999999999998  C 8 12.354166666666666  8.046875 12.234375  8.140625 12.140625  C 8.234375 12.046875  8.354166666666668 12  8.5 12  L 12 12  L 12 6.500000000000001  C 12 6.354166666666663  12.046875 6.234375  12.140625 6.140625  C 12.234375000000004 6.046875  12.354166666666668 6  12.5 6  L 13.5 6  C 13.645833333333336 6  13.765625 6.046875  13.859375 6.140625  Z M 19.359375 16.265625  C 20.119791666666668 14.963541666666664  20.5 13.541666666666668  20.5 12  C 20.5 10.458333333333332  20.119791666666668 9.036458333333332  19.359375 7.734375  C 18.598958333333336 6.432291666666664  17.567708333333336 5.401041666666664  16.265625 4.640625  C 14.963541666666668 3.880208333333333  13.541666666666668 3.500000000000001  12 3.500000000000001  C 10.458333333333334 3.500000000000001  9.036458333333334 3.880208333333333  7.734375 4.640625  C 6.432291666666667 5.401041666666664  5.401041666666667 6.432291666666664  4.640625 7.734375  C 3.880208333333334 9.036458333333332  3.5 10.458333333333332  3.5 12  C 3.5 13.541666666666668  3.880208333333334 14.963541666666664  4.640625 16.265625  C 5.401041666666667 17.56770833333333  6.432291666666667 18.598958333333332  7.734375 19.359375  C 9.036458333333334 20.119791666666668  10.458333333333334 20.5  12 20.5  C 13.541666666666668 20.5  14.963541666666668 20.119791666666668  16.265625 19.359375  C 17.567708333333336 18.598958333333332  18.598958333333336 17.56770833333333  19.359375 16.265625  Z M 22.390625 5.9765625  C 23.463541666666664 7.815104166666664  24 9.822916666666664  24 12  C 24 14.177083333333334  23.463541666666664 16.18489583333333  22.390625 18.0234375  C 21.317708333333336 19.861979166666668  19.861979166666668 21.317708333333332  18.0234375 22.390625  C 16.184895833333336 23.463541666666668  14.177083333333334 24  12 24  C 9.822916666666668 24  7.815104166666667 23.463541666666668  5.9765625 22.390625  C 4.138020833333334 21.317708333333332  2.682291666666667 19.861979166666668  1.609375 18.0234375  C 0.5364583333333333 16.18489583333333  0 14.177083333333334  0 12  C 0 9.822916666666664  0.5364583333333333 7.815104166666664  1.609375 5.9765625  C 2.682291666666667 4.138020833333333  4.138020833333334 2.6822916666666643  5.9765625 1.6093749999999991  C 7.815104166666667 0.5364583333333313  9.822916666666668 0  12 0  C 14.177083333333334 0  16.184895833333336 0.5364583333333313  18.0234375 1.6093749999999991  C 19.861979166666668 2.6822916666666643  21.317708333333336 4.138020833333333  22.390625 5.9765625  Z " fill-rule="evenodd" />
    </mask>
  </defs>
  <g transform="matrix(1 0 0 1 -714 -181 )">
    <path d="M 13.859375 6.140625  C 13.953125 6.234375  14 6.354166666666663  14 6.500000000000001  L 14 13.5  C 14 13.645833333333332  13.953125 13.765624999999998  13.859375 13.859374999999998  C 13.765625 13.953124999999998  13.645833333333336 13.999999999999998  13.5 13.999999999999998  L 8.5 13.999999999999998  C 8.354166666666668 13.999999999999998  8.234375 13.953124999999998  8.140625 13.859374999999998  C 8.046875 13.765624999999998  8 13.645833333333332  8 13.5  L 8 12.499999999999998  C 8 12.354166666666666  8.046875 12.234375  8.140625 12.140625  C 8.234375 12.046875  8.354166666666668 12  8.5 12  L 12 12  L 12 6.500000000000001  C 12 6.354166666666663  12.046875 6.234375  12.140625 6.140625  C 12.234375000000004 6.046875  12.354166666666668 6  12.5 6  L 13.5 6  C 13.645833333333336 6  13.765625 6.046875  13.859375 6.140625  Z M 19.359375 16.265625  C 20.119791666666668 14.963541666666664  20.5 13.541666666666668  20.5 12  C 20.5 10.458333333333332  20.119791666666668 9.036458333333332  19.359375 7.734375  C 18.598958333333336 6.432291666666664  17.567708333333336 5.401041666666664  16.265625 4.640625  C 14.963541666666668 3.880208333333333  13.541666666666668 3.500000000000001  12 3.500000000000001  C 10.458333333333334 3.500000000000001  9.036458333333334 3.880208333333333  7.734375 4.640625  C 6.432291666666667 5.401041666666664  5.401041666666667 6.432291666666664  4.640625 7.734375  C 3.880208333333334 9.036458333333332  3.5 10.458333333333332  3.5 12  C 3.5 13.541666666666668  3.880208333333334 14.963541666666664  4.640625 16.265625  C 5.401041666666667 17.56770833333333  6.432291666666667 18.598958333333332  7.734375 19.359375  C 9.036458333333334 20.119791666666668  10.458333333333334 20.5  12 20.5  C 13.541666666666668 20.5  14.963541666666668 20.119791666666668  16.265625 19.359375  C 17.567708333333336 18.598958333333332  18.598958333333336 17.56770833333333  19.359375 16.265625  Z M 22.390625 5.9765625  C 23.463541666666664 7.815104166666664  24 9.822916666666664  24 12  C 24 14.177083333333334  23.463541666666664 16.18489583333333  22.390625 18.0234375  C 21.317708333333336 19.861979166666668  19.861979166666668 21.317708333333332  18.0234375 22.390625  C 16.184895833333336 23.463541666666668  14.177083333333334 24  12 24  C 9.822916666666668 24  7.815104166666667 23.463541666666668  5.9765625 22.390625  C 4.138020833333334 21.317708333333332  2.682291666666667 19.861979166666668  1.609375 18.0234375  C 0.5364583333333333 16.18489583333333  0 14.177083333333334  0 12  C 0 9.822916666666664  0.5364583333333333 7.815104166666664  1.609375 5.9765625  C 2.682291666666667 4.138020833333333  4.138020833333334 2.6822916666666643  5.9765625 1.6093749999999991  C 7.815104166666667 0.5364583333333313  9.822916666666668 0  12 0  C 14.177083333333334 0  16.184895833333336 0.5364583333333313  18.0234375 1.6093749999999991  C 19.861979166666668 2.6822916666666643  21.317708333333336 4.138020833333333  22.390625 5.9765625  Z " fill-rule="nonzero" fill="rgba(0, 0, 0, 1)" stroke="none" transform="matrix(1 0 0 1 714 181 )" class="fill" />
    <path d="M 13.859375 6.140625  C 13.953125 6.234375  14 6.354166666666663  14 6.500000000000001  L 14 13.5  C 14 13.645833333333332  13.953125 13.765624999999998  13.859375 13.859374999999998  C 13.765625 13.953124999999998  13.645833333333336 13.999999999999998  13.5 13.999999999999998  L 8.5 13.999999999999998  C 8.354166666666668 13.999999999999998  8.234375 13.953124999999998  8.140625 13.859374999999998  C 8.046875 13.765624999999998  8 13.645833333333332  8 13.5  L 8 12.499999999999998  C 8 12.354166666666666  8.046875 12.234375  8.140625 12.140625  C 8.234375 12.046875  8.354166666666668 12  8.5 12  L 12 12  L 12 6.500000000000001  C 12 6.354166666666663  12.046875 6.234375  12.140625 6.140625  C 12.234375000000004 6.046875  12.354166666666668 6  12.5 6  L 13.5 6  C 13.645833333333336 6  13.765625 6.046875  13.859375 6.140625  Z " stroke-width="0" stroke-dasharray="0" stroke="rgba(255, 255, 255, 0)" fill="none" transform="matrix(1 0 0 1 714 181 )" class="stroke" mask="url(#Clip26)" />
    <path d="M 19.359375 16.265625  C 20.119791666666668 14.963541666666664  20.5 13.541666666666668  20.5 12  C 20.5 10.458333333333332  20.119791666666668 9.036458333333332  19.359375 7.734375  C 18.598958333333336 6.432291666666664  17.567708333333336 5.401041666666664  16.265625 4.640625  C 14.963541666666668 3.880208333333333  13.541666666666668 3.500000000000001  12 3.500000000000001  C 10.458333333333334 3.500000000000001  9.036458333333334 3.880208333333333  7.734375 4.640625  C 6.432291666666667 5.401041666666664  5.401041666666667 6.432291666666664  4.640625 7.734375  C 3.880208333333334 9.036458333333332  3.5 10.458333333333332  3.5 12  C 3.5 13.541666666666668  3.880208333333334 14.963541666666664  4.640625 16.265625  C 5.401041666666667 17.56770833333333  6.432291666666667 18.598958333333332  7.734375 19.359375  C 9.036458333333334 20.119791666666668  10.458333333333334 20.5  12 20.5  C 13.541666666666668 20.5  14.963541666666668 20.119791666666668  16.265625 19.359375  C 17.567708333333336 18.598958333333332  18.598958333333336 17.56770833333333  19.359375 16.265625  Z " stroke-width="0" stroke-dasharray="0" stroke="rgba(255, 255, 255, 0)" fill="none" transform="matrix(1 0 0 1 714 181 )" class="stroke" mask="url(#Clip26)" />
    <path d="M 22.390625 5.9765625  C 23.463541666666664 7.815104166666664  24 9.822916666666664  24 12  C 24 14.177083333333334  23.463541666666664 16.18489583333333  22.390625 18.0234375  C 21.317708333333336 19.861979166666668  19.861979166666668 21.317708333333332  18.0234375 22.390625  C 16.184895833333336 23.463541666666668  14.177083333333334 24  12 24  C 9.822916666666668 24  7.815104166666667 23.463541666666668  5.9765625 22.390625  C 4.138020833333334 21.317708333333332  2.682291666666667 19.861979166666668  1.609375 18.0234375  C 0.5364583333333333 16.18489583333333  0 14.177083333333334  0 12  C 0 9.822916666666664  0.5364583333333333 7.815104166666664  1.609375 5.9765625  C 2.682291666666667 4.138020833333333  4.138020833333334 2.6822916666666643  5.9765625 1.6093749999999991  C 7.815104166666667 0.5364583333333313  9.822916666666668 0  12 0  C 14.177083333333334 0  16.184895833333336 0.5364583333333313  18.0234375 1.6093749999999991  C 19.861979166666668 2.6822916666666643  21.317708333333336 4.138020833333333  22.390625 5.9765625  Z " stroke-width="0" stroke-dasharray="0" stroke="rgba(255, 255, 255, 0)" fill="none" transform="matrix(1 0 0 1 714 181 )" class="stroke" mask="url(#Clip26)" />
  </g>
</svg>