<?xml version="1.0" encoding="utf-8"?>
<svg version="1.1" xmlns:xlink="http://www.w3.org/1999/xlink" width="13px" height="12px" xmlns="http://www.w3.org/2000/svg">
  <defs>
    <pattern id="BGPattern" patternUnits="userSpaceOnUse" alignment="0 0" imageRepeat="None" />
    <mask fill="white" id="Clip30">
      <path d="M 12.693602693602694 8.969696969696969  C 12.897867564534232 9.158249158249156  13 9.387205387205386  13 9.656565656565657  C 13 9.925925925925927  12.897867564534232 10.154882154882154  12.693602693602694 10.343434343434343  L 11.205387205387204 11.717171717171716  C 11.001122334455669 11.905723905723907  10.753086419753087 12  10.461279461279462 12  C 10.169472502805837 12  9.921436588103255 11.905723905723907  9.717171717171718 11.717171717171716  L 6.5 8.747474747474747  L 3.282828282828283 11.717171717171716  C 3.0785634118967455 11.905723905723907  2.830527497194164 12  2.538720538720539 12  C 2.246913580246914 12  1.9988776655443325 11.905723905723907  1.7946127946127948 11.717171717171716  L 0.3063973063973064 10.343434343434343  C 0.1021324354657689 10.154882154882154  0 9.925925925925927  0 9.656565656565657  C 0 9.387205387205386  0.1021324354657689 9.158249158249156  0.3063973063973064 8.969696969696969  L 3.5235690235690234 6  L 0.3063973063973064 3.03030303030303  C 0.1021324354657689 2.841750841750841  0 2.612794612794613  0 2.3434343434343434  C 0 2.074074074074074  0.1021324354657689 1.8451178451178434  0.3063973063973064 1.656565656565657  L 1.7946127946127948 0.2828282828282829  C 1.9988776655443325 0.09427609427609385  2.246913580246914 0  2.538720538720539 0  C 2.830527497194164 0  3.0785634118967455 0.09427609427609385  3.282828282828283 0.2828282828282829  L 6.5 3.252525252525253  L 9.717171717171718 0.2828282828282829  C 9.921436588103255 0.09427609427609385  10.169472502805837 0  10.461279461279462 0  C 10.753086419753087 0  11.001122334455669 0.09427609427609385  11.205387205387204 0.2828282828282829  L 12.693602693602694 1.656565656565657  C 12.897867564534232 1.8451178451178434  13 2.074074074074074  13 2.3434343434343434  C 13 2.612794612794613  12.897867564534232 2.841750841750841  12.693602693602694 3.03030303030303  L 9.476430976430976 6  L 12.693602693602694 8.969696969696969  Z " fill-rule="evenodd" />
    </mask>
  </defs>
  <g transform="matrix(1 0 0 1 -258 -19 )">
    <path d="M 12.693602693602694 8.969696969696969  C 12.897867564534232 9.158249158249156  13 9.387205387205386  13 9.656565656565657  C 13 9.925925925925927  12.897867564534232 10.154882154882154  12.693602693602694 10.343434343434343  L 11.205387205387204 11.717171717171716  C 11.001122334455669 11.905723905723907  10.753086419753087 12  10.461279461279462 12  C 10.169472502805837 12  9.921436588103255 11.905723905723907  9.717171717171718 11.717171717171716  L 6.5 8.747474747474747  L 3.282828282828283 11.717171717171716  C 3.0785634118967455 11.905723905723907  2.830527497194164 12  2.538720538720539 12  C 2.246913580246914 12  1.9988776655443325 11.905723905723907  1.7946127946127948 11.717171717171716  L 0.3063973063973064 10.343434343434343  C 0.1021324354657689 10.154882154882154  0 9.925925925925927  0 9.656565656565657  C 0 9.387205387205386  0.1021324354657689 9.158249158249156  0.3063973063973064 8.969696969696969  L 3.5235690235690234 6  L 0.3063973063973064 3.03030303030303  C 0.1021324354657689 2.841750841750841  0 2.612794612794613  0 2.3434343434343434  C 0 2.074074074074074  0.1021324354657689 1.8451178451178434  0.3063973063973064 1.656565656565657  L 1.7946127946127948 0.2828282828282829  C 1.9988776655443325 0.09427609427609385  2.246913580246914 0  2.538720538720539 0  C 2.830527497194164 0  3.0785634118967455 0.09427609427609385  3.282828282828283 0.2828282828282829  L 6.5 3.252525252525253  L 9.717171717171718 0.2828282828282829  C 9.921436588103255 0.09427609427609385  10.169472502805837 0  10.461279461279462 0  C 10.753086419753087 0  11.001122334455669 0.09427609427609385  11.205387205387204 0.2828282828282829  L 12.693602693602694 1.656565656565657  C 12.897867564534232 1.8451178451178434  13 2.074074074074074  13 2.3434343434343434  C 13 2.612794612794613  12.897867564534232 2.841750841750841  12.693602693602694 3.03030303030303  L 9.476430976430976 6  L 12.693602693602694 8.969696969696969  Z " fill-rule="nonzero" fill="rgba(0, 0, 0, 1)" stroke="none" transform="matrix(1 0 0 1 258 19 )" class="fill" />
    <path d="M 12.693602693602694 8.969696969696969  C 12.897867564534232 9.158249158249156  13 9.387205387205386  13 9.656565656565657  C 13 9.925925925925927  12.897867564534232 10.154882154882154  12.693602693602694 10.343434343434343  L 11.205387205387204 11.717171717171716  C 11.001122334455669 11.905723905723907  10.753086419753087 12  10.461279461279462 12  C 10.169472502805837 12  9.921436588103255 11.905723905723907  9.717171717171718 11.717171717171716  L 6.5 8.747474747474747  L 3.282828282828283 11.717171717171716  C 3.0785634118967455 11.905723905723907  2.830527497194164 12  2.538720538720539 12  C 2.246913580246914 12  1.9988776655443325 11.905723905723907  1.7946127946127948 11.717171717171716  L 0.3063973063973064 10.343434343434343  C 0.1021324354657689 10.154882154882154  0 9.925925925925927  0 9.656565656565657  C 0 9.387205387205386  0.1021324354657689 9.158249158249156  0.3063973063973064 8.969696969696969  L 3.5235690235690234 6  L 0.3063973063973064 3.03030303030303  C 0.1021324354657689 2.841750841750841  0 2.612794612794613  0 2.3434343434343434  C 0 2.074074074074074  0.1021324354657689 1.8451178451178434  0.3063973063973064 1.656565656565657  L 1.7946127946127948 0.2828282828282829  C 1.9988776655443325 0.09427609427609385  2.246913580246914 0  2.538720538720539 0  C 2.830527497194164 0  3.0785634118967455 0.09427609427609385  3.282828282828283 0.2828282828282829  L 6.5 3.252525252525253  L 9.717171717171718 0.2828282828282829  C 9.921436588103255 0.09427609427609385  10.169472502805837 0  10.461279461279462 0  C 10.753086419753087 0  11.001122334455669 0.09427609427609385  11.205387205387204 0.2828282828282829  L 12.693602693602694 1.656565656565657  C 12.897867564534232 1.8451178451178434  13 2.074074074074074  13 2.3434343434343434  C 13 2.612794612794613  12.897867564534232 2.841750841750841  12.693602693602694 3.03030303030303  L 9.476430976430976 6  L 12.693602693602694 8.969696969696969  Z " stroke-width="0" stroke-dasharray="0" stroke="rgba(255, 255, 255, 0)" fill="none" transform="matrix(1 0 0 1 258 19 )" class="stroke" mask="url(#Clip30)" />
  </g>
</svg>